@startuml
title Диаграмма сущностей системы умного дома

left to right direction

entity "Пользователи" as users {
* id : int PK
created_at : datetime
updated_at : datetime
}

entity "Дома" as houses {
* id : int PK
* house_name : varchar
* owner_id : int FK users(id)
created_at : datetime
updated_at : datetime
}

entity "Комнаты" as rooms {
* id : int PK
* room_name : varchar
* house_id : int FK houses(id)
created_at : datetime
updated_at : datetime
}

entity "Устройства" as devices {
* id : int PK
* device_name : varchar
* user_id : int FK users(id)
* home_id : int FK houses(id)
* room_id : int FK rooms(id)
is_active : bool
type : varchar
value: float
unit: varchar
status: enum(ON, OFF, STANDBY)
created_at : datetime
updated_at : datetime
}

users ||--o{ houses : владеет
houses ||--o{ rooms : содержит
users ||--o{ devices : содержит
houses ||--o{ devices : содержит
rooms ||--o{ devices : содержит

@enduml
